<?xml version="1.0" encoding="UTF-8"?>
<svg id="Capa_2" data-name="Capa 2" xmlns="http://www.w3.org/2000/svg" viewBox="0 0 988.62 102.07">
  <defs>
    <style>
      .cls-1 {
        fill: #d8552b;
      }

      .cls-2 {
        fill: #fff;
      }
    </style>
  </defs>
  <g>
    <path class="cls-2" d="M179.27,60.39h27.9c0,2.66.52,6.74,10.07,6.74h.22c9.62,0,10.81-2.66,10.81-4.66,0-2.44-1.26-3.85-10.73-4.37l-9.1-.37c-19.98-.96-24.94-8.29-24.94-16.8,0-1.18.22-2.74.37-3.41,2-9.1,10.51-14.21,34.94-14.21h7.92c29.76,0,32.79,9.84,31.98,17.84h-27.46c-.07-2.07-.67-5.11-9.84-5.11h-.3c-8.59,0-10.07,1.41-10.07,3.48s1.48,3.4,10.36,3.77l9.03.37c19.98.74,26.79,5.4,26.79,15.47,0,1.33-.07,2.89-.22,3.92-1.33,9.25-7.92,17.32-37.31,17.32h-8.07c-31.46,0-33.16-12.8-32.35-19.98Z"/>
    <path class="cls-2" d="M283.64,41.51h-23.02l2.66-17.25h70.54l-2.74,17.25h-23.02l-6,37.82h-24.43l6-37.82Z"/>
    <path class="cls-2" d="M353.36,79.33h-24.35l8.73-55.07h54.7c12.51,0,19.69,4.22,19.69,13.03s-7.48,13.25-14.06,14.51c6.66,1.92,11.03,6.59,9.92,13.77l-1.33,7.92c-.52,3.11-.15,4.52.15,5.4l-.07.44h-25.02c-.3-.52-.3-1.26-.07-2.59l1.04-6.22c.96-5.92-1.41-9.4-9.4-9.4h-17.02l-2.89,18.21ZM380.31,46.62c4.66,0,6.07-2.37,6.07-4.52s-1.26-3.55-5.03-3.55h-21.54l-1.33,8.07h21.84Z"/>
    <path class="cls-2" d="M480.9,24.26l-2.37,14.58h-38.12l-.81,5.4h37.6l-2.29,14.36h-37.68l-.96,6h38.64l-2.29,14.73h-62.62l8.73-55.07h62.18Z"/>
    <path class="cls-2" d="M531.01,71.71h-28.65l-4.44,7.62h-24.65l33.9-55.07h33.6l19.32,55.07h-26.72l-2.37-7.62ZM521.16,39.51l-9.99,17.02h15.25l-5.26-17.02Z"/>
    <path class="cls-2" d="M570.01,24.26h32.12l10.44,27.31,18.43-27.31h31.53l-8.73,55.07h-24.2l4.81-30.42-20.65,30.42h-11.84l-11.77-30.42-4.81,30.42h-24.06l8.73-55.07Z"/>
    <path class="cls-1" d="M683.26,79.33h-24.35l8.73-55.07h54.7c12.51,0,19.69,4.22,19.69,13.03s-7.48,13.25-14.06,14.51c6.66,1.92,11.03,6.59,9.92,13.77l-1.33,7.92c-.52,3.11-.15,4.52.15,5.4l-.07.44h-25.02c-.3-.52-.3-1.26-.07-2.59l1.04-6.22c.96-5.92-1.41-9.4-9.4-9.4h-17.02l-2.89,18.21ZM710.2,46.62c4.66,0,6.07-2.37,6.07-4.52s-1.26-3.55-5.03-3.55h-21.54l-1.33,8.07h21.84Z"/>
    <path class="cls-1" d="M794.43,71.71h-28.65l-4.44,7.62h-24.65l33.9-55.07h33.6l19.32,55.07h-26.72l-2.37-7.62ZM784.59,39.51l-9.99,17.02h15.25l-5.26-17.02Z"/>
    <path class="cls-1" d="M858.24,80.37c-31.24,0-38.12-13.03-38.12-25.17,0-2.29.15-4.37.44-6.29,1.55-10.22,7.85-25.68,42.34-25.68h2.59c35.68,0,38.56,15.91,37.45,22.95l-.15.96h-24.8c-.15-1.41-1.26-7.62-14.8-7.62-15.54,0-17.76,8.29-17.76,13.99,0,5.4,3.18,10.44,14.73,10.44,13.92,0,15.91-6.88,16.43-8.14h24.87l-.15.96c-1.11,7.03-4.81,23.61-40.49,23.61h-2.59Z"/>
    <path class="cls-1" d="M972.23,24.26l-2.37,14.58h-38.12l-.81,5.4h37.6l-2.29,14.36h-37.68l-.96,6h38.64l-2.29,14.73h-62.62l8.73-55.07h62.18Z"/>
  </g>
  <g>
    <path class="cls-1" d="M22.32,80.02h-3.68c-3.21,0-5.81,2.6-5.81,5.81s2.6,5.81,5.81,5.81h3.68c3.21,0,5.81-2.6,5.81-5.81s-2.6-5.81-5.81-5.81Z"/>
    <path class="cls-1" d="M20.19,45.29h.58c3.21,0,5.81-2.6,5.81-5.81s-2.6-5.81-5.81-5.81h-.58c-3.21,0-5.81,2.6-5.81,5.81s2.6,5.81,5.81,5.81Z"/>
    <path class="cls-1" d="M28.81,22.11h9.1c3.21,0,5.81-2.6,5.81-5.81s-2.6-5.81-5.81-5.81h-9.1c-3.21,0-5.81,2.6-5.81,5.81s2.6,5.81,5.81,5.81Z"/>
    <path class="cls-1" d="M151.95,44.82L106.39,12.11c-1.53-1.1-3.36-1.68-5.23-1.68h-41.08c-3.21,0-5.81,2.6-5.81,5.81h0c0,3.21,2.6,5.81,5.81,5.81h8.93c3,.22,5.37,2.73,5.37,5.79s-2.37,5.56-5.37,5.79h-27.91c-3.21,0-5.81,2.6-5.81,5.81h0c0,3.21,2.6,5.81,5.81,5.81h10.57c3,.22,5.37,2.73,5.37,5.79s-2.37,5.56-5.37,5.79h-24.52c-3.21,0-5.81,2.6-5.81,5.81h0c0,3.21,2.6,5.81,5.81,5.81h29.41c3,.22,5.37,2.73,5.37,5.79s-2.37,5.56-5.37,5.79h-10.46c-2.87,0-5.45,2.02-5.9,4.86-.58,3.63,2.21,6.76,5.73,6.76h53.72c2.85,0,5.62-.89,7.93-2.55l44.35-31.84c4.25-3.05,4.25-9.37,0-12.42Z"/>
  </g>
</svg>