<?xml version="1.0" encoding="UTF-8"?>
<svg id="Capa_1" xmlns="http://www.w3.org/2000/svg" version="1.1" viewBox="0 0 791.21 199.38">
  <!-- Generator: Adobe Illustrator 29.4.0, SVG Export Plug-In . SVG Version: 2.1.0 Build 152)  -->
  <defs>
    <style>
      .st0 {
        fill: #fff;
      }

      .st0, .st1, .st2 {
        fill-rule: evenodd;
      }

      .st1 {
        fill: #ec1c24;
      }
    </style>
  </defs>
  <path class="st2" d="M374.58,76.02c12.31-14.43,31.28-16.29,50.91-16.09h3.4c-7.09-12.99-.97-33.48,18.35-34.01.1,0,.18,0,.28,0l157.2.22c.13,0,.23,0,.36,0,6.49.25,12.61,2.58,16.36,8.14,5.61,8.32,2.7,20.91-2.47,32.24l91.73-38.64c.19-.08.36-.14.56-.21,33.23-11.66,50.12,37.06,14.88,49.77l-81.56,33.77c7.82,4.9,16.96,9.45,24.27,8.78,6.42-.59,15.23-4.33,21.61-6.45l39.07-17.31c6.23-2.98,13.13-3.29,19.43-.34,16.71,7.83,20.29,32.75,5.16,44.3-.6.46-1.16.79-1.85,1.11l-43.56,19.95c-.2.09-.37.16-.58.24-25.19,9.63-50.04,10.55-75.31.77-20.77-8.05-38.71-22.04-55.47-36.46l-11.84,21.95c2.69,3.95,4.04,8.6,3.51,13.43-1.69,15.53-18.41,19.38-30.96,22.18-13.15,2.94-41.91,3.16-48.31-11.23-1.76-3.95-1.89-8-.86-11.82h-33.32c-3.5,0-6.5-1.69-8.32-4.67-1.82-2.98-1.94-6.43-.33-9.53l7.43-14.37h-49.39s-11.78,23.24-11.78,23.24c-1.7,3.35-4.92,5.33-8.68,5.33h-35.5c-3.42,0-6.36-1.61-8.2-4.49-1.84-2.88-2.07-6.23-.63-9.33l9.13-19.7c-6.43,3.95-13.72,6.37-21.36,6.06l-63.46-.13c-3.52,0-6.55-1.73-8.35-4.76-.38-.65-.69-1.31-.92-1.99l-15.84,30.24c-1.72,3.29-4.91,5.22-8.62,5.22h-44.75c-3.04,0-5.7-1.27-7.54-3.57-1.82,2.28-4.5,3.57-7.55,3.57h-35.28c-3.5,0-6.5-1.69-8.32-4.67-1.82-2.98-1.94-6.43-.33-9.53l7.43-14.37h-49.39s-11.78,23.24-11.78,23.24c-1.7,3.35-4.92,5.34-8.68,5.34H29.07c-3.42,0-6.36-1.61-8.2-4.49-1.84-2.88-2.07-6.23-.63-9.33l28.22-60.92c.04-.09.08-.16.12-.25,11.44-22.98,33.75-25.64,56.99-25.39h71.75c12.31-.43,29.14,1.16,35.35,13.68.51,1.03.92,2.08,1.23,3.14l6.12-11.62c1.73-3.28,4.91-5.2,8.61-5.2h124.49c.35,0,.64.01.99.05,7.43.76,14.24,3.93,18.31,10.42.91,1.45,1.63,2.96,2.17,4.52"/>
  <path class="st1" d="M602.16,84.17l112.31-47.31c21.2-7.44,31.63,23.21,8.16,31.51l-92.04,38.11c-3.25.96-5.47,3.47-2.34,5.45,35.88,25.26,40.99,18.76,65.7,10.72l39.76-17.62c16.09-7.69,27.82,17.27,14.49,27.44l-43.56,19.95c-52.56,20.1-89.02-6.32-122.54-35.35-1.68-1.18-6.11-4.22-8.28-3.76-.56.12-.98.55-1.32.99l-18.53,34.34c.38.84,2.39,3.18,2.88,3.8,1.77,2.21,2.79,4.85,2.48,7.71-1.03,9.5-15.62,12-23.41,13.74-7.19,1.6-33.45,2.97-37.3-5.68-1.57-3.53-.13-7.14,2.03-10.04l39.89-76.53c5.87-9.26,3.71-19.81-12.96-20.12l-80.97-.82c-14.81-.71-14.66-24.6.87-25.03l157.2.22c24.13.93-1.61,39.69-5.45,44.69-1.98,2.38.92,4.65,2.91,3.6"/>
  <path class="st0" d="M230.74,151.7h-44.75l42.63-80.92h124.49c29.89,3.05,2.64,53.71-24.96,52.34l-63.67-.13,10.1-18.68h44.62c10.37.47,19.08-13.62,6.8-13.53h-63.35l-31.91,60.92Z"/>
  <path class="st0" d="M64.57,151.7H29.07l28.22-60.92c8-16.07,22.33-20.27,48.27-20h71.92c21.65-.79,31.72,6.15,25.81,20l-32.39,60.92h-35.28l14.78-28.58h-71.37s-14.48,28.58-14.48,28.58ZM92.98,96.48l-4.03,7.82h71.35l3.68-7.44c2.06-3.94-.84-6.16-6.23-6.08h-51.99c-5.35,0-10.25,1.22-12.77,5.71Z"/>
  <path class="st0" d="M384.49,150.59h-35.5l28.22-60.92c8-16.07,22.33-20.26,48.28-20h71.92c21.65-.79,31.72,6.15,25.81,20l-32.39,60.92h-35.28l14.78-28.58h-71.37l-14.48,28.58ZM412.9,95.37l-4.03,7.82h71.35l3.68-7.44c2.06-3.94-.84-6.16-6.23-6.08h-51.99c-5.35,0-10.25,1.22-12.77,5.71Z"/>
</svg>