<?xml version="1.0" encoding="UTF-8"?>
<svg id="Capa_1" xmlns="http://www.w3.org/2000/svg" version="1.1" viewBox="0 0 670.95 88.62">
  <!-- Generator: Adobe Illustrator 29.4.0, SVG Export Plug-In . SVG Version: 2.1.0 Build 152)  -->
  <defs>
    <style>
      .st0 {
        fill: #f0eeed;
      }

      .st1 {
        fill: #d8552b;
      }
    </style>
  </defs>
  <path class="st1" d="M662.97,12.37c.07,3.99-3.34,7.4-7.37,7.38-4.05-.02-7.31-3.27-7.38-7.3-.07-4.01,3.27-7.37,7.16-7.47,4.15-.11,7.67,3.37,7.59,7.39M655.61,6.46c-3.14-.09-5.9,2.65-5.94,5.84-.03,3.26,2.73,6.01,5.92,5.99,3.28-.03,5.92-2.66,5.92-5.96,0-3.22-2.66-5.86-5.9-5.86"/>
  <path class="st1" d="M652.45,8.52s.04-.03.06-.03c1.47.02,2.95.04,4.42.07,1.1.03,2.03,1.15,1.82,2.48-.15.94-.79,1.56-1.84,1.8-.04,0-.08.01-.12.02,0,.02,0,.05.01.05.5.22.81.62,1.08,1.07.45.76.9,1.52,1.38,2.31-.1.01-.17.02-.24.02-.5,0-1,0-1.5,0-.18,0-.27-.06-.35-.22-.3-.59-.62-1.17-.93-1.76-.07-.12-.15-.23-.22-.35-.45-.72-1.11-.97-1.96-.88v3.19h-1.6v-7.79ZM654.06,11.89c.75-.04,1.48-.05,2.21-.12.46-.05.77-.46.81-.92.04-.42-.23-.82-.66-1-.05-.02-.09-.04-.14-.05-.74-.04-1.48-.07-2.23-.1v2.19Z"/>
  <path class="st1" d="M642.29,45.89l-47.46,38.74h25.6l36.92-30.9c3.3-2.72,4.29-4.9,4.29-7.73,0-2.39-.55-4.46-3.52-6.96l-39.22-33.51h-25.6l49,40.37Z"/>
  <path class="st1" d="M599.65,45.89l-47.46,38.74h25.6l36.92-30.9c3.3-2.72,4.29-4.9,4.29-7.73,0-2.39-.55-4.46-3.52-6.96l-39.22-33.51h-25.6l49,40.37Z"/>
  <path class="st1" d="M557.01,45.89l-47.46,38.74h25.6l36.92-30.9c3.3-2.72,4.29-4.9,4.29-7.73,0-2.39-.55-4.46-3.52-6.96l-39.22-33.51h-25.6l49,40.37Z"/>
  <polygon class="st0" points="172.84 45.07 220.25 17.7 220.25 72.45 172.84 45.07"/>
  <path class="st0" d="M9.56,79.35c-1.98,0-3.68-1.13-3.68-3.39,0-.94.47-1.89,1.32-2.74L60.86,16.93H6.73v-6.13h60.73c1.98,0,3.77,1.13,3.77,3.4,0,.94-.57,1.89-1.41,2.73l-53.56,56.29h53.37v6.13H9.56Z"/>
  <path class="st0" d="M88.68,19.94v59.41h-6.04V14.1c0-2.55,1.32-4.15,3.49-4.15,1.04,0,2.07.47,3.11,1.6l55.82,58.46V10.61h6.04v65.63c0,2.55-1.41,3.96-3.39,3.96-1.13,0-2.36-.66-3.3-1.6l-55.73-58.65Z"/>
  <path class="st1" d="M273.12,61.34v-16.78h23.67c5.85,0,9.34-3.21,9.34-8.2s-3.49-8.2-9.34-8.2h-32.06v51.2h-17.35V10.8h49.41c16.6,0,26.4,9.71,26.4,24.99s-9.81,25.55-26.4,25.55h-23.67Z"/>
  <path class="st1" d="M388.54,79.35l-16.03-18.29h-16.97v-14.62h24.61c5.75,0,9.24-3.58,9.24-9.15s-3.49-9.15-9.24-9.15h-33v51.2h-17.35V10.8h50.35c16.5,0,26.31,10.09,26.31,25.84,0,11.22-5.28,18.77-13.67,22.16l20.46,20.56h-24.71Z"/>
  <path class="st1" d="M448.43,79.35c-19.9,0-34.51-15.09-34.51-34.98s14.62-33.57,34.51-33.57h17.26c20.46,0,34.61,13.67,34.61,33.57s-14.52,34.98-34.61,34.98h-17.26ZM465.68,61.91c10.18,0,17.26-6.98,17.26-16.69s-7.17-17.07-17.26-17.07h-17.26c-9.81,0-17.07,7.26-17.07,17.07s7.07,16.69,17.07,16.69h17.26Z"/>
</svg>